<svg aria-hidden="true" style="width:0;height:0;position:absolute;overflow:hidden" xmlns="http://www.w3.org/2000/svg"><defs><symbol id="icon-burger" viewBox="0 0 60 32"><path d="M2 0h56a2 2 0 1 1 0 4H2a2 2 0 1 1 0-4zM2 14h56a2 2 0 1 1 0 4H2a2 2 0 1 1 0-4zM2 28h56a2 2 0 1 1 0 4H2a2 2 0 1 1 0-4z"/></symbol><symbol id="icon-close" viewBox="0 0 32 32"><path d="M28.614 1.13 16 13.744 3.386 1.13a1.594 1.594 0 0 0-2.207.049 1.596 1.596 0 0 0-.049 2.207L13.738 16 1.127 28.611a1.6 1.6 0 0 0-.029 2.284 1.579 1.579 0 0 0 1.147.468 1.616 1.616 0 0 0 1.137-.493L16 18.259l12.614 12.614a1.6 1.6 0 0 0 2.207-.049 1.596 1.596 0 0 0 .049-2.207L18.256 16.003 30.87 3.385a1.6 1.6 0 0 0 .029-2.284 1.579 1.579 0 0 0-1.147-.468 1.601 1.601 0 0 0-1.137.494v.003z"/></symbol><symbol id="icon-facebook" viewBox="0 0 32 32"><path d="M22.512.007 18.895 0c-4.064 0-6.69 3.091-6.69 7.875v3.631H8.568c-.314 0-.569.292-.569.653v5.261c0 .361.255.652.569.652h3.637v13.275c0 .36.254.652.569.652h4.745c.314 0 .569-.292.569-.652V18.072h4.252c.314 0 .569-.292.569-.652l.002-5.261c0-.173-.06-.339-.167-.461s-.252-.191-.402-.191h-4.254V8.429c0-1.479.307-2.23 1.987-2.23l2.437-.001c.314 0 .568-.292.568-.652V.661c0-.36-.254-.652-.568-.652z"/></symbol><symbol id="icon-instagram" viewBox="0 0 32 32"><path d="M16.316 32h-.319c-2.508.006-4.826-.058-7.08-.195-2.066-.126-3.953-.84-5.455-2.065-1.45-1.182-2.44-2.781-2.942-4.75-.438-1.715-.461-3.398-.483-5.026a343.853 343.853 0 0 1-.036-3.96c.003-1.414.02-2.798.036-3.966.022-1.628.045-3.311.483-5.026.503-1.97 1.493-3.568 2.942-4.75C4.965 1.037 6.851.323 8.918.197 11.172.06 13.49-.004 16.004.002c2.509-.005 4.826.058 7.08.195 2.066.126 3.953.84 5.455 2.065 1.45 1.182 2.44 2.781 2.943 4.75.437 1.715.461 3.398.483 5.026.016 1.168.033 2.552.036 3.96v.006c-.003 1.408-.02 2.792-.036 3.96-.022 1.628-.045 3.311-.483 5.026-.503 1.97-1.493 3.568-2.943 4.75-1.502 1.225-3.389 1.939-5.455 2.065-2.159.131-4.376.195-6.768.195zm-.319-2.5c2.468.006 4.733-.056 6.934-.19 1.563-.095 2.917-.602 4.027-1.507 1.026-.837 1.732-1.991 2.1-3.431.364-1.428.385-2.96.406-4.442.016-1.16.032-2.535.036-3.929-.004-1.394-.02-2.769-.036-3.929-.02-1.482-.041-3.015-.406-4.443-.367-1.44-1.074-2.594-2.1-3.431-1.11-.905-2.465-1.412-4.027-1.507a108.807 108.807 0 0 0-6.928-.19c-2.467-.006-4.733.056-6.934.19-1.563.095-2.917.602-4.027 1.507-1.026.837-1.732 1.991-2.1 3.431-.364 1.428-.385 2.96-.406 4.443a363.726 363.726 0 0 0-.036 3.932c.003 1.389.02 2.765.036 3.926.02 1.482.041 3.015.406 4.442.367 1.44 1.074 2.594 2.1 3.431 1.11.905 2.465 1.412 4.027 1.507 2.201.134 4.467.197 6.928.191zm-.06-5.688c-4.308 0-7.813-3.505-7.813-7.812s3.505-7.813 7.813-7.813S23.75 11.692 23.75 16s-3.505 7.812-7.813 7.812zm0-13.125c-2.929 0-5.313 2.383-5.313 5.313s2.383 5.312 5.313 5.312c2.93 0 5.313-2.383 5.313-5.312s-2.383-5.313-5.313-5.313zm8.688-5a1.875 1.875 0 1 0 0 3.75 1.875 1.875 0 0 0 0-3.75z"/></symbol><symbol id="icon-item" viewBox="0 0 32 32"><path fill="#fff" style="fill:var(--color1,#fff);stroke:var(--color2,#f3848c)" stroke="#f3848c" stroke-width="1.333" d="M31.333 16c0 8.468-6.865 15.333-15.333 15.333S.667 24.468.667 16 7.532.667 16 .667 31.333 7.532 31.333 16z"/><path fill="#fff" style="fill:var(--color1,#fff)" d="M29.333 16c0 7.364-5.97 13.333-13.333 13.333S2.667 23.363 2.667 16C2.667 8.636 8.637 2.667 16 2.667S29.333 8.637 29.333 16z"/><path fill="none" stroke="#f3848c" style="stroke:var(--color2,#f3848c)" stroke-linecap="round" stroke-width=".667" d="M29 16c0 7.18-5.82 13-13 13S3 23.18 3 16 8.82 3 16 3s13 5.82 13 13z"/><path style="fill:var(--color3,#000)" d="M9.333 10.953a2.859 2.859 0 0 0 2.381 2.814v4.329a.48.48 0 0 0 .476.477h7.62a.476.476 0 0 0 .476-.477v-4.329a2.859 2.859 0 0 0 2.38-2.814 2.86 2.86 0 0 0-2.857-2.857h-1.078c-.603-.862-1.602-1.429-2.732-1.429s-2.129.566-2.732 1.429h-1.078a2.865 2.865 0 0 0-2.857 2.857zm3.333 6.191h6.668v.475h-6.668v-.475zm-.475-8.096h.616c-.093.309-.14.63-.14.952a.472.472 0 0 0 .476.476.48.48 0 0 0 .477-.476c0-1.313 1.068-2.381 2.381-2.381S18.382 8.687 18.382 10a.476.476 0 0 0 .953 0c0-.331-.05-.65-.141-.952h.616a1.906 1.906 0 0 1 1.348 3.25 1.91 1.91 0 0 1-1.344.56h-.003a.478.478 0 0 0-.478.478l.001.005v2.853h-6.668V13.337a.478.478 0 0 0-.477-.477h-.003a1.904 1.904 0 0 1 .004-3.809zm9.046 11.429H10.763a.472.472 0 0 0-.476.476.472.472 0 0 0 .476.476h10.474a.472.472 0 0 0 .476-.476.472.472 0 0 0-.476-.476zm0 1.429H10.763a.472.472 0 0 0-.476.476.472.472 0 0 0 .476.476h10.474a.472.472 0 0 0 .476-.476.472.472 0 0 0-.476-.476zm-2.381 1.441h-5.713a.472.472 0 0 0-.476.476.472.472 0 0 0 .476.476h5.713a.472.472 0 0 0 .476-.476.473.473 0 0 0-.476-.476z"/></symbol><symbol id="icon-location" viewBox="0 0 23 32"><path d="M11.733 0c6.47 0 11.733 5.131 11.733 11.438a11.15 11.15 0 0 1-2.341 6.857l-8.669 11.382c-.022.028-.055.038-.079.063a.887.887 0 0 1-1.367-.063c-2.496-3.247-7.072-9.312-8.832-11.599l-.001-.003-.011-.014a11.162 11.162 0 0 1-2.167-6.623C-.001 5.131 5.263 0 11.732 0zm0 17.609c3.483 0 6.33-2.775 6.33-6.171s-2.847-6.171-6.33-6.171-6.33 2.775-6.33 6.171 2.847 6.171 6.33 6.171z"/></symbol><symbol id="icon-logo" viewBox="0 0 69 32"><path d="M41.02 15.997c0 .261-.008.521 0 .783.086 2.653-.714 5.043-1.999 7.296a33.035 33.035 0 0 0-1.214 2.314c-.306.649-.732 1.104-1.393 1.37-.37.148-.712.405-1.022.669-1.426 1.218-3.044 2.091-4.774 2.705-1.149.408-2.333.767-3.582.751-.372-.004-.745.114-1.118.115s-.746-.124-1.115-.108c-1.61.071-3.102-.441-4.583-.979-1.616-.587-3.043-1.513-4.386-2.617-1.895-1.558-3.245-3.52-4.237-5.765-.535-1.211-.97-2.46-1.093-3.804-.021-.223-.092-.444-.155-.66-.45-1.507-.191-2.985.087-4.486.213-1.148.432-2.283.847-3.373 1.097-2.884 2.839-5.245 5.252-7.1 2.011-1.545 4.263-2.494 6.71-2.902 2.809-.468 5.551-.131 8.211.963 1.327.548 2.58 1.241 3.674 2.159 1.02.856 1.941 1.858 2.81 2.883.788.928 1.347 2.034 1.847 3.162.78 1.762 1.289 3.586 1.237 5.546-.011.362-.003.721-.003 1.08zm-1.078-3.57c-.078-.616-.126-1.329-.272-2.022-.415-1.992-1.53-3.548-3.016-4.818-.844-.722-1.764-1.349-2.67-1.988-.307-.216-.664-.415-1.022-.481-.922-.176-1.854-.34-2.788-.389-1.622-.085-3.078-.518-4.303-1.685-.901-.858-1.883-.941-2.819-.186-1.062.855-2.27 1.357-3.502 1.854-.902.364-1.772.823-2.639 1.276-.725.379-1.147.971-1.137 1.867.006.503-.217.923-.667 1.201-.375.234-.736.492-1.079.773-.96.781-1.708 1.662-1.869 3.027-.128 1.08-.444 2.148-1.159 3.038a2.079 2.079 0 0 0-.427 1.069c-.066.807-.039 1.625-.019 2.437.005.217.097.451.204.642.247.452.516.891.807 1.315.703 1.011 1.313 2.046 1.455 3.329.137 1.244.717 2.257 1.7 3.03 1.423 1.121 2.795 2.31 4.239 3.402.776.588 1.607 1.102 2.631 1.221s2.028.408 2.946.941c.192.107.404.174.621.197 1.295.144 2.494-.187 3.632-.814a17.39 17.39 0 0 1 1.093-.546c.889-.412 1.874-.682 2.649-1.255.861-.639 1.782-.923 2.771-1.101.427-.077.776-.26 1.054-.588.332-.39.639-.802.985-1.179.358-.389.616-.802.678-1.356.096-.849.447-1.599.893-2.319.755-1.217 1.184-2.562 1.407-3.992.059-.375.092-.692-.088-1.023-.519-.953-.307-2.034-.472-3.049-.083-.548.108-1.148.189-1.832l-.002.001zm-6.251-9.518c-.219-.251-.289-.364-.388-.434-.179-.128-.375-.233-.566-.344-1.63-.95-3.416-1.412-5.24-1.743-.366-.067-.752-.037-1.126-.022-.097.004-.213.102-.275.19-.028.04.035.18.089.248.406.5.935.878 1.532 1.092a9.958 9.958 0 0 0 3.207.623c.463.013.926.104 1.387.169.394.058.787.127 1.379.223zm-13.85 27.375c-1.094-.925-2.053-1.752-3.029-2.556-.808-.666-1.634-1.309-2.46-1.952-.093-.072-.239-.07-.442-.124.995 1.728 4.319 4.354 5.931 4.632zM12.468 8.699c.66-.521 1.27-1.07 1.941-1.524.94-.633 1.299-1.421 1.077-2.773-.667.564-1.142 1.244-1.657 1.861-.543.651-.946 1.426-1.399 2.155-.035.059.022.175.038.281zm22.255 19.722c-.616-.044-1.236.069-1.622.412-.733.652-1.605.98-2.492 1.306-.466.171-.905.422-1.343.661-.061.033-.072.209-.059.313.004.035.168.092.236.069.796-.281 1.619-.507 2.374-.883.925-.459 1.793-1.04 2.678-1.579.093-.054.142-.181.228-.299zm-23.518-9.04c-.177.54-.142.838-.031 1.156.309.883.496 1.814 1.052 2.585.206.286.248.925.629.787.335-.12-.057-.627-.08-.968-.088-1.304-.751-2.355-1.571-3.561zm5.971-16.239.083.129c.46-.176.924-.343 1.379-.532.989-.41 1.976-.829 2.959-1.254a2.39 2.39 0 0 0 .549-.366c.047-.04.039-.175.024-.258-.008-.037-.101-.078-.155-.08a.936.936 0 0 0-.272.047c-1.337.393-2.598.974-3.804 1.68-.282.165-.511.422-.764.636zm23.478 14.005c.081-.097.144-.138.148-.183.13-1.421-.015-2.829-.203-4.233-.009-.071-.104-.172-.168-.18-.071-.01-.182.051-.225.117a.761.761 0 0 0-.128.352 13.936 13.936 0 0 0 .22 3.46c.043.23.227.432.357.668zm-29.772-3.92c.522-.206.6-.578.656-.915.136-.82.477-1.61.364-2.477-.545 1.035-1.029 2.084-1.02 3.392zm12.626 18.007c-1.17-.535-1.487-.591-2.528-.441.441.173.838.448 1.238.452.416.006.867.534 1.29-.011z"/><path d="M25.92 20.593c-.8-.015-1.349-.361-1.756-1.03-.379-.624-1.009-.947-1.586-1.332-.728-.484-1.32-1.031-1.488-2.012-.116-.665.019-1.244.28-1.769a2.942 2.942 0 0 1 1.022-1.108c.446-.283.815-.55 1.021-1.073.233-.602.82-.638 1.34-.747.489-.102.987-.167 1.47-.295.66-.174 1.259-.12 1.741.411.373.412.808.708 1.293.958.505.26.671.564.513 1.107-.108.369-.004.62.129.914.145.321.295.647.394.986.332 1.128-.05 2.077-1.073 2.58-.634.311-1.12.726-1.278 1.456a.672.672 0 0 1-.491.537c-.506.153-1.02.28-1.53.417zm3.357-4.729c.016-1.987-1.44-3.576-3.334-3.579-1.699 0-3.409 1.189-3.475 3.469-.053 1.824 1.416 3.524 3.331 3.53 2.332.012 3.432-1.663 3.478-3.42zm-6.828 1.9c0-.255.024-.385-.004-.503-.251-1.079-.415-2.148.155-3.188.041-.075-.054-.229-.085-.346-.112.037-.247.045-.332.117a2.49 2.49 0 0 0 .265 3.92zm3.496-5.977c.394.149.619.255.854.321.868.238 1.608.664 2.123 1.451.102.155.233.385.427.209.103-.094.137-.382.078-.526-.08-.191-.263-.43-.438-.468-.477-.103-.737-.46-1.048-.771-.522-.519-1.106-.682-1.995-.215zm-.054 7.822-.012-.075c-.25 0-.502-.022-.748.009-.127.016-.241.127-.361.195.109.1.204.257.33.29.672.175 1.35.213 2.013-.055.113-.046.239-.106.311-.201.063-.08.083-.223.071-.331-.005-.04-.162-.101-.239-.088-.455.074-.909.167-1.361.254l-.002.001zm3.438-2.038c.466-.089.674-.361.701-.779.02-.352.015-.705-.015-1.056-.007-.093-.132-.175-.203-.263-.104.101-.314.238-.295.299.189.609-.206 1.155-.188 1.797v.001zM33.59 20.323c-.027.014-.135.107-.252.12-.106.013-.262-.024-.328-.101a17.222 17.222 0 0 1-.949-1.199c-.078-.109-.109-.401-.065-.426.146-.083.43-.17.493-.098.375.427.704.897 1.043 1.357.033.046.023.125.057.346zM17.733 23.668c.173.014.515.025.849.084.083.015.194.183.194.283s-.096.274-.179.295c-.648.167-1.293.207-1.867-.241a.31.31 0 0 1-.091-.246c.012-.067.113-.16.18-.165.249-.022.498-.01.914-.01zM38.046 9.562l.245.139c-.069.129-.112.336-.214.373a9.847 9.847 0 0 1-1.433.423c-.14.028-.344-.114-.473-.232-.149-.136-.06-.431.128-.461.552-.088 1.109-.155 1.746-.242zM21.546 26.541c.259.125.476.16.582.294.29.372.556.764.795 1.174.116.195.01.406-.186.462-.108.031-.302-.06-.382-.16-.316-.394-.61-.807-.878-1.238-.062-.102.034-.308.069-.532zM31.719 11.018c.016-.114 0-.244.052-.294.07-.066.22-.12.292-.085.098.049.162.182.229.286.188.291.374.584.553.883.08.134.187.276.194.42a.573.573 0 0 1-.168.398c-.054.051-.276.018-.331-.053-.359-.471-.789-.913-.821-1.554zM32.835 6.01c-.078.481-.109.836-.199 1.175a.977.977 0 0 1-.311.465c-.103.086-.282.073-.427.105-.012-.14-.054-.286-.029-.419.076-.41.177-.815.268-1.222.007-.032.005-.065.014-.096.071-.245.226-.432.473-.331.125.051.183.276.211.323zM26.143 9.141c.218.028.5.043.77.111.092.023.228.194.212.268-.028.132-.134.306-.246.345a.912.912 0 0 1-.547.003c-.31-.102-.6-.136-.909-.002-.203.088-.394-.004-.449-.214-.073-.281.132-.417.361-.456.245-.042.497-.035.808-.054zM30.984 22.97c-.088.398-.155.748-.25 1.089-.019.067-.155.157-.213.142-.103-.026-.248-.11-.269-.198a1.353 1.353 0 0 1-.015-.577c.073-.35.145-.682.008-1.039-.065-.171-.047-.444.205-.444.136 0 .33.173.391.316.099.229.106.499.144.71zM27.165 22.868c-.05.093-.075.204-.141.251-.409.291-.818.584-1.248.838-.11.065-.303.025-.443-.018-.205-.063-.248-.342-.078-.455.47-.312.944-.621 1.428-.908.078-.046.233.004.333.055.068.035.097.149.149.237zM21.957 4.155c.066.04.191.075.208.139.162.618.319 1.238.448 1.864.036.174-.187.27-.336.166-.469-.327-.762-1.536-.488-2.042.028-.05.097-.075.168-.128zM27.756 5.911c-.141-.097-.294-.147-.314-.231-.022-.091.051-.247.13-.321.344-.318.704-.618 1.079-.897.126-.092.388-.157.485-.085.229.166.109.401-.051.573-.214.231-.427.475-.674.662-.189.141-.432.201-.655.299zM18.833 9.177l-.343.335c-.098-.11-.243-.201-.284-.331a24.515 24.515 0 0 1-.433-1.555c-.018-.072.039-.219.097-.244.095-.04.252-.056.324 0 .142.109.305.254.352.418.122.425.187.87.288 1.377zM15.076 17.757c-.315.596-.554 1.207-1.14 1.533-.099.055-.317-.015-.422-.102-.179-.147 0-.27.087-.395.275-.392.529-.8.822-1.177.075-.097.267-.144.397-.131.088.008.161.164.257.272zM18.632 17.808c.164.098.283.128.305.192.036.106.055.272 0 .346-.09.117-.244.184-.377.263-.344.204-.684.42-1.042.594a.46.46 0 0 1-.404-.035c-.2-.147-.13-.383.031-.487.491-.318 1.008-.596 1.486-.873zM36.428 15.106c-.127.295-.304.74-.515 1.167-.033.066-.237.102-.323.063-.08-.037-.168-.205-.152-.295.085-.475.178-.952.321-1.411.043-.14.24-.267.391-.314.056-.017.202.2.272.334.04.075.007.191.007.457zM14.978 11.562c.557.517.491 1.218.552 1.866.012.12-.133.292-.249.379-.061.046-.307-.028-.312-.07a38.143 38.143 0 0 1-.209-1.971c-.004-.056.127-.125.218-.205zM27.994 27.56c.093.026.185.057.275.093.335.16.671.316.998.493.155.083.311.188.422.321.128.154-.018.451-.198.41-.607-.136-1.2-.325-1.654-.794-.067-.069-.066-.243-.044-.358.013-.065.13-.11.201-.165zM20.606 11.751c.032.104.142.265.104.366-.204.536-.44 1.059-.68 1.578-.029.064-.155.12-.23.11-.065-.008-.155-.103-.172-.175-.127-.579.274-1.615.722-1.876.046-.027.12-.004.257-.004zM37.964 20.539c-.07-.046-.215-.102-.291-.209-.03-.043.068-.239.152-.301.373-.281.755-.549 1.152-.789.107-.065.33-.069.409.003.073.067.083.321.018.414-.333.48-.753.846-1.439.883zM35.658 24.67c-.288-.031-.413-.034-.533-.062-.051-.012-.127-.074-.127-.114a.445.445 0 0 1 .066-.259.471.471 0 0 1 .233-.15 24.32 24.32 0 0 1 1.339-.388c.098-.024.304.043.317.1.029.137-.006.303-.058.441-.028.073-.137.134-.222.16-.386.11-.773.207-1.014.272zM22.288 21.355c-.032.14-.083.45-.183.743-.025.073-.219.142-.308.116s-.194-.178-.191-.274c.009-.541.035-1.083.088-1.622.011-.117.155-.221.238-.331.099.109.26.205.286.329.056.279.044.573.07 1.039zM43.096 4.422c0-1.146.268-2.016.805-2.608.542-.598 1.237-.898 2.084-.898s1.521.258 2.02.775c.506.516.759 1.342.759 2.475s-.268 1.99-.805 2.57c-.536.579-1.252.869-2.148.869-.774 0-1.408-.23-1.902-.69-.256-.239-.457-.57-.603-.992-.14-.428-.21-.929-.21-1.502zm2.862-3.41c-.616 0-1.121.283-1.518.85-.39.567-.585 1.398-.585 2.494s.186 1.896.558 2.4c.372.504.865.756 1.481.756.622 0 1.128-.283 1.518-.85.396-.573.594-1.401.594-2.485 0-1.09-.189-1.89-.567-2.4-.372-.51-.865-.765-1.481-.765zM50.346 7.569h-.759V.955h.759v3.042h2.971V.955h.759v6.614h-.759V4.092h-2.971v3.477zM57.976 7.569h-.119l.795-6.614h.302l1.92 6.113L62.785.955h.302l.795 6.614h-.759l-.631-5.291-1.655 5.291h-.576l-1.673-5.225-.613 5.225zM68.947.955c.116.12.173.274.173.463 0 .157-.033.318-.1.482l-1.636 3.43v2.239h-.759V5.538L64.797.956h.778l1.746 4.261 1.59-3.316c.067-.157.101-.321.101-.491s-.046-.302-.138-.397l.074-.057zM1.289 9.306c.473-.022.934-.033 1.385-.033.462 0 .945.05 1.45.15.516.1 1.02.289 1.514.566.505.266.929.616 1.273 1.049.354.422.639.982.854 1.682s.322 1.548.322 2.547c0 .999-.161 1.898-.483 2.697-.311.788-.741 1.393-1.289 1.815-1.063.821-2.347 1.232-3.85 1.232-.526 0-1.079-.022-1.659-.067H.001V9.306H1.29zm.048 11.505c.226.022.51.033.854.033s.601-.006.773-.017c.172-.011.408-.055.709-.133.301-.089.58-.205.838-.35s.526-.355.806-.633c.29-.289.537-.627.741-1.016.462-.91.693-2.098.693-3.563 0-1.043-.123-1.942-.37-2.697-.247-.766-.532-1.332-.854-1.698a3.337 3.337 0 0 0-1.144-.866c-.451-.222-.811-.35-1.079-.383s-.58-.05-.934-.05c-.354 0-.698.017-1.031.05v11.321zM43.358 20.944h-.209V9.29h.548l6.702 10.772V9.29h.209v11.654h-1.176l-6.074-9.656v9.656zM60.528 9.29h.209v6.66c0 1.743-.333 3.025-.999 3.846-.666.81-1.536 1.215-2.61 1.215-.677 0-1.251-.061-1.724-.183a3.67 3.67 0 0 1-1.337-.716c-.859-.688-1.289-2.076-1.289-4.162V9.29h1.337v6.643c0 2.02.295 3.369.886 4.046.301.333.612.561.934.683.333.122.73.183 1.192.183 1.031 0 1.853-.388 2.465-1.165.623-.788.934-2.037.934-3.746V9.291zM66.233 20.944h-1.337V9.456h-2.787v-.167h6.927v.167h-2.803v11.488z"/></symbol><symbol id="icon-phone" viewBox="0 0 32 32"><path d="M29.43 20.474c-1.959 0-3.882-.299-5.705-.886-.893-.297-1.991-.025-2.536.521l-3.598 2.648c-4.172-2.171-6.743-4.676-8.939-8.713l2.636-3.416a2.475 2.475 0 0 0 .636-2.554 17.325 17.325 0 0 1-.912-5.571C11.012 1.123 9.86 0 8.445 0H2.569C1.153 0 .001 1.123.001 2.503c0 15.819 13.202 28.689 29.43 28.689 1.416 0 2.568-1.123 2.568-2.503v-5.712c0-1.38-1.152-2.503-2.568-2.503z"/></symbol><symbol id="icon-star" viewBox="0 0 34 32"><path fill="#edd501" style="fill:var(--color4,#edd501)" d="M15.24 1.561c.504-1.552 2.699-1.552 3.204 0l2.558 7.872a1.684 1.684 0 0 0 1.602 1.164h8.277c1.632 0 2.31 2.088.99 3.047l-6.696 4.865a1.685 1.685 0 0 0-.612 1.883l2.558 7.872c.504 1.552-1.272 2.842-2.592 1.883l-6.696-4.865a1.684 1.684 0 0 0-1.98 0l-6.696 4.865c-1.32.959-3.096-.331-2.592-1.883l2.558-7.872a1.685 1.685 0 0 0-.612-1.883l-6.696-4.865c-1.32-.959-.642-3.047.99-3.047h8.277c.73 0 1.376-.47 1.602-1.164l2.558-7.872z"/></symbol><symbol id="icon-twitter" viewBox="0 0 32 32"><path d="M32 5.441c-1.19.583-2.458.97-3.78 1.158 1.36-.908 2.398-2.334 2.886-4.053a12.307 12.307 0 0 1-4.16 1.775C25.742 2.888 24.026 2 22.154 2c-3.632 0-6.556 3.295-6.556 7.335 0 .581.044 1.14.152 1.672-5.454-.297-10.28-3.219-13.522-7.671a8.059 8.059 0 0 0-.898 3.707c0 2.54 1.17 4.791 2.914 6.095-1.054-.022-2.088-.364-2.964-.903v.08c0 3.564 2.274 6.524 5.256 7.206a5.905 5.905 0 0 1-1.72.241c-.42 0-.844-.027-1.242-.125.85 2.904 3.262 5.039 6.13 5.109-2.232 1.952-5.066 3.128-8.134 3.128-.538 0-1.054-.027-1.57-.101 2.906 2.095 6.35 3.291 10.064 3.291 12.072 0 18.672-11.178 18.672-20.868 0-.324-.01-.637-.024-.948C30.014 8.215 31.108 6.925 32 5.441z"/></symbol></defs></svg>